<svg xmlns="http://www.w3.org/2000/svg" xmlns:xlink="http://www.w3.org/1999/xlink" width="500" zoomAndPan="magnify" viewBox="0 0 375 374.999991" height="500" preserveAspectRatio="xMidYMid meet" version="1.0"><defs><clipPath id="4619eab3b3"><path d="M 27.792969 27.792969 L 347.207031 27.792969 L 347.207031 347.207031 L 27.792969 347.207031 Z M 27.792969 27.792969 " clip-rule="nonzero"/></clipPath><clipPath id="3d35435ba1"><path d="M 187.5 27.792969 C 99.296875 27.792969 27.792969 99.296875 27.792969 187.5 C 27.792969 275.703125 99.296875 347.207031 187.5 347.207031 C 275.703125 347.207031 347.207031 275.703125 347.207031 187.5 C 347.207031 99.296875 275.703125 27.792969 187.5 27.792969 Z M 187.5 27.792969 " clip-rule="nonzero"/></clipPath><clipPath id="e97d6aa2dc"><path d="M 0.792969 0.792969 L 320.207031 0.792969 L 320.207031 320.207031 L 0.792969 320.207031 Z M 0.792969 0.792969 " clip-rule="nonzero"/></clipPath><clipPath id="266ef6de9f"><path d="M 160.5 0.792969 C 72.296875 0.792969 0.792969 72.296875 0.792969 160.5 C 0.792969 248.703125 72.296875 320.207031 160.5 320.207031 C 248.703125 320.207031 320.207031 248.703125 320.207031 160.5 C 320.207031 72.296875 248.703125 0.792969 160.5 0.792969 Z M 160.5 0.792969 " clip-rule="nonzero"/></clipPath><clipPath id="0c5d81ea83"><rect x="0" width="321" y="0" height="321"/></clipPath></defs><g clip-path="url(#4619eab3b3)"><g clip-path="url(#3d35435ba1)"><g transform="matrix(1, 0, 0, 1, 27, 27)"><g clip-path="url(#0c5d81ea83)"><g clip-path="url(#e97d6aa2dc)"><g clip-path="url(#266ef6de9f)"><path fill="#000000" d="M 0.792969 0.792969 L 320.207031 0.792969 L 320.207031 320.207031 L 0.792969 320.207031 Z M 0.792969 0.792969 " fill-opacity="1" fill-rule="nonzero"/></g></g></g></g></g></g><path fill="#ffffff" d="M 180.015625 31.785156 C 172.320312 32.085938 169.714844 32.382812 160.566406 33.964844 C 145.945312 36.53125 128.804688 42.472656 115.253906 49.738281 C 99.695312 58.074219 89.519531 65.382812 77.894531 76.667969 C 57.546875 96.460938 43.910156 118.902344 36.34375 145.191406 C 34.847656 150.367188 32.367188 163.105469 31.386719 170.328125 C 30.699219 175.714844 30.699219 198.628906 31.386719 204.269531 C 32.882812 215.984375 35.359375 227.609375 38.308594 236.714844 C 45.363281 258.34375 57.160156 277.878906 73.703125 295.148438 C 92.214844 314.558594 120.382812 330.757812 147.402344 337.640625 C 160.480469 340.976562 169.671875 342.171875 184.292969 342.429688 C 200.664062 342.726562 212.375 341.402344 227.210938 337.640625 C 254.78125 330.671875 283.847656 313.617188 302.359375 293.570312 C 323.730469 270.398438 336.300781 244.921875 341.558594 214.101562 C 343.269531 204.140625 343.652344 197.941406 343.394531 184.265625 C 343.054688 165.839844 341.300781 155.195312 335.746094 138.226562 C 320.355469 91.03125 279.53125 52.304688 229.601562 37.511719 C 214.171875 32.9375 197.925781 31.058594 180.015625 31.785156 Z M 205.664062 58.203125 C 234.648438 62.734375 263.542969 77.910156 283.636719 99.15625 C 289.0625 104.882812 292.441406 109.113281 297.144531 116.210938 C 308.515625 133.222656 315.355469 152.675781 317.703125 174.558594 C 318.515625 182.554688 318.304688 197.6875 317.234375 205.339844 C 316.292969 212.050781 313.902344 222.523438 312.019531 228.207031 C 306.890625 243.683594 297.65625 260.3125 288.082031 271.339844 C 269.015625 293.183594 243.582031 308.316406 216.007812 314.128906 C 210.324219 315.328125 203.058594 316.480469 200.878906 316.480469 L 199.464844 316.480469 L 199.464844 239.964844 L 200.449219 239.792969 C 222.121094 235.175781 236.957031 225.773438 253.199219 206.363281 L 254.953125 204.226562 L 245.589844 195.507812 C 240.460938 190.675781 236.058594 186.699219 235.84375 186.613281 C 235.628906 186.53125 234.648438 187.683594 233.664062 189.179688 C 227.464844 198.285156 220.070312 205.082031 211.648438 209.269531 C 208.65625 210.765625 201.261719 213.460938 200.066406 213.460938 C 199.550781 213.460938 199.464844 211.324219 199.464844 199.226562 L 199.464844 184.992188 L 202.800781 184.222656 C 210.921875 182.296875 220.15625 178.320312 226.910156 173.832031 C 232.894531 169.859375 236.914062 166.4375 243.453125 159.855469 L 249.609375 153.699219 L 240.289062 144.550781 C 235.160156 139.550781 230.84375 135.445312 230.671875 135.445312 C 230.5 135.445312 229.433594 136.644531 228.363281 138.097656 C 224.261719 143.695312 217.25 150.28125 212.332031 153.144531 C 209.511719 154.8125 202.757812 157.71875 200.878906 158.058594 L 199.464844 158.273438 L 199.464844 77.097656 L 174.671875 77.097656 L 174.671875 158.230469 L 172.320312 157.632812 C 168.859375 156.734375 164.070312 154.425781 159.796875 151.648438 C 155.695312 148.996094 148.769531 142.328125 145.304688 137.710938 L 143.167969 134.847656 L 133.976562 144.210938 L 124.789062 153.570312 L 131.667969 160.582031 C 140.605469 169.6875 145.945312 173.707031 154.796875 178.023438 C 159.496094 180.289062 169.542969 183.792969 172.664062 184.222656 L 174.671875 184.519531 L 174.671875 198.96875 C 174.671875 206.960938 174.546875 213.460938 174.417969 213.460938 C 173.390625 213.460938 168.261719 211.835938 165.269531 210.554688 C 156.078125 206.664062 147.871094 199.738281 141.757812 190.71875 C 140.261719 188.539062 138.980469 186.65625 138.9375 186.574219 C 138.722656 186.316406 136.117188 188.710938 127.695312 196.832031 L 119.871094 204.441406 L 123.71875 209.058594 C 137.011719 224.960938 150.691406 233.894531 168.6875 238.46875 C 170.996094 239.066406 173.304688 239.535156 173.777344 239.535156 L 174.671875 239.535156 L 174.671875 316.480469 L 173.734375 316.480469 C 168.859375 316.480469 151.804688 312.847656 143.894531 310.15625 C 127.992188 304.726562 112.132812 295.40625 97.984375 283.179688 C 83.066406 270.269531 69.941406 250.308594 62.933594 229.746094 C 54.808594 205.980469 53.828125 180.417969 60.066406 154.683594 C 68.148438 121.511719 91.699219 91.675781 124.144531 73.507812 C 138.421875 65.511719 158.128906 59.144531 173.605469 57.476562 C 180.273438 56.792969 199.253906 57.21875 205.664062 58.203125 Z M 205.664062 58.203125 " fill-opacity="1" fill-rule="nonzero"/><path fill="#ffffff" d="M 245.804688 99.453125 C 243.921875 101.589844 240.078125 105.824219 237.167969 108.773438 L 231.953125 114.160156 L 235.03125 116.636719 C 248.539062 127.453125 257.347656 137.753906 263.542969 150.152344 C 270.128906 163.191406 273.546875 180.84375 272.136719 194.222656 C 270.8125 206.960938 267.304688 217.863281 261.234375 228.164062 C 252.089844 243.726562 238.410156 255.867188 222.335938 262.664062 C 219.515625 263.859375 216.308594 265.054688 215.199219 265.3125 L 213.144531 265.824219 L 213.144531 279.375 C 213.144531 286.855469 213.230469 292.96875 213.316406 292.96875 C 213.828125 292.96875 223.960938 289.808594 226.609375 288.824219 C 230.886719 287.242188 239.050781 283.136719 244.90625 279.589844 C 263.84375 268.089844 278.890625 251.632812 287.566406 232.824219 C 291.542969 224.234375 295.304688 210.9375 296.757812 200.207031 C 297.742188 193.15625 297.742188 179.5625 296.800781 173.148438 C 294.238281 156.179688 288.296875 140.277344 279.832031 127.753906 C 272.519531 116.9375 265.382812 109.285156 251.789062 97.742188 L 249.136719 95.476562 Z M 245.804688 99.453125 " fill-opacity="1" fill-rule="nonzero"/><path fill="#ffffff" d="M 122.949219 97.53125 C 117.992188 101.589844 111.152344 107.832031 108.03125 111.125 C 100.207031 119.375 92 130.789062 87.683594 139.464844 C 79.519531 155.878906 75.5 177.808594 77.210938 196.574219 C 79.988281 226.625 93.839844 252.148438 117.820312 271.425781 C 129.488281 280.828125 142.570312 287.414062 160.054688 292.757812 L 160.992188 293.011719 L 160.910156 279.289062 L 160.78125 265.570312 L 156.421875 264.117188 C 146.246094 260.695312 135.601562 254.113281 126.839844 245.734375 C 117.863281 237.140625 110.339844 225.085938 106.105469 212.605469 C 96.832031 185.078125 103.585938 153.699219 123.675781 131.171875 C 128.207031 126.085938 131.796875 122.707031 138.039062 117.792969 L 142.613281 114.117188 L 136.074219 107.492188 C 132.480469 103.8125 128.589844 99.710938 127.480469 98.34375 C 126.328125 97.015625 125.300781 95.90625 125.128906 95.90625 C 125 95.949219 124.019531 96.632812 122.949219 97.53125 Z M 122.949219 97.53125 " fill-opacity="1" fill-rule="nonzero"/></svg>